<svg id="Layer_1" data-name="Layer 1" xmlns="http://www.w3.org/2000/svg" viewBox="0 0 500 471.77"><title>Mitsuri-logo</title><rect x="396.51" width="103.49" height="471.77" rx="51.75" fill="#9cc"/><rect x="307.54" y="253.04" width="383.53" height="103.49" rx="51.75" transform="translate(-219.27 288.24) rotate(-45)" fill="#3cc"/><rect x="248.94" y="113.02" width="103.49" height="383.53" rx="51.75" transform="translate(-277.45 147.79) rotate(-45)" fill="#6cf"/><path d="M436.29,367.21,400,330.92l-36.29,36.29a51.89,51.89,0,0,0,0,73.18h0c10,10,21.51,15.08,36.29,15.08s26.3-5.1,36.29-15.08h0A51.89,51.89,0,0,0,436.29,367.21Z" transform="translate(-150 -154.1)" fill="#cff"/><path d="M201.75,625.87h0A51.9,51.9,0,0,1,150,574.12V205.84c0-28.46,21.51-51.74,51.75-51.74h0c30.24,0,51.74,23.28,51.74,51.74V574.12A51.89,51.89,0,0,1,201.75,625.87Z" transform="translate(-150 -154.1)" fill="#006"/></svg>